<svg width="1920" height="1080" viewBox="0 0 1920 1080" fill="none" xmlns="http://www.w3.org/2000/svg">
    <g opacity="0.25">
        <path fill-rule="evenodd" clip-rule="evenodd" d="M223.556 -237.149C292.706 -221.423 310.592 -130.392 366.25 -86.4457C418.209 -45.4187 505.724 -50.6186 534.997 8.76242C564.553 68.718 533.533 140.54 508.751 202.621C485.36 261.218 451.583 316.648 398.488 350.729C347.191 383.656 283.974 377.613 223.556 385.686C151.343 395.335 72.1753 442.079 11.0064 402.505C-49.9942 363.04 -53.0114 274.44 -60.1517 202.138C-66.0818 142.091 -39.4551 87.7005 -25.8891 28.9062C-10.5602 -37.5282 -22.2583 -114.455 24.3746 -164.194C73.9492 -217.069 152.879 -253.222 223.556 -237.149Z" stroke="#8E8E8E"/>
        <path fill-rule="evenodd" clip-rule="evenodd" d="M447.067 70.6727C435.091 123.326 365.764 136.946 332.296 179.326C301.051 218.89 305.011 285.527 259.789 307.817C214.128 330.322 159.431 306.703 112.152 287.832C67.5268 270.022 25.313 244.302 -0.642324 203.873C-25.7184 164.814 -21.1159 116.678 -27.2642 70.6727C-34.6126 15.6872 -70.2111 -44.5948 -40.0729 -91.1713C-10.0176 -137.62 57.4572 -139.917 112.52 -145.354C158.25 -149.869 199.672 -129.595 244.448 -119.265C295.042 -107.593 353.628 -116.5 391.507 -80.9922C431.775 -43.244 459.308 16.8567 447.067 70.6727Z" stroke="#8E8E8E"/>
        <path fill-rule="evenodd" clip-rule="evenodd" d="M242.344 758.768C339.74 754.603 459.193 716.832 526.173 787.685C594.891 860.377 528.904 981.217 545.845 1079.82C559.143 1157.22 632.407 1222.92 614.073 1299.28C595.442 1376.88 513.527 1416.44 452.641 1468C385.871 1524.55 328.492 1598.84 242.344 1614.1C148.459 1630.72 51.0136 1603.71 -30.0298 1553.47C-115.329 1500.59 -210.998 1428.39 -218.663 1328.3C-226.306 1228.51 -101.638 1171.78 -66.4381 1078.1C-33.9698 991.689 -88.5434 877.584 -24.3822 811.23C40.1949 744.447 149.545 762.737 242.344 758.768Z" stroke="#8E8E8E"/>
        <path fill-rule="evenodd" clip-rule="evenodd" d="M673.614 1617.23C590.143 1708.16 517.012 1848.92 393.608 1845.45C267.001 1841.9 217.891 1674.63 114.444 1601.52C33.2428 1544.13 -91.1791 1550.89 -143.131 1466.11C-195.922 1379.96 -158.002 1271.2 -149.656 1170.52C-140.503 1060.11 -155.648 942.225 -92.1765 851.438C-23.0036 752.496 88.4236 689.435 205.966 661.858C329.68 632.833 479.975 611.821 576.451 694.57C672.635 777.069 611.807 939.477 664.167 1054.87C712.464 1161.3 863.485 1214.6 865.448 1331.45C867.423 1449.06 753.145 1530.59 673.614 1617.23Z" stroke="#8E8E8E"/>
        <path fill-rule="evenodd" clip-rule="evenodd" d="M1450.31 -404.678C1608.12 -381.743 1661.6 -180.648 1782.74 -76.867C1889.4 14.5054 2049.24 40.7955 2115.14 164.865C2186.23 298.694 2197.66 464.801 2146.18 607.343C2095.49 747.731 1952.39 820.267 1842.16 920.825C1714.23 1037.52 1622.9 1228.96 1450.31 1242.13C1277.21 1255.34 1125.8 1115.78 1012.49 984.142C914.846 870.695 925.469 708.912 871.24 569.358C812.079 417.111 645.366 290.299 680.923 130.867C716.472 -28.5308 905.484 -91.6362 1039.46 -184.889C1170.14 -275.854 1292.78 -427.572 1450.31 -404.678Z" stroke="#8E8E8E"/>
        <path fill-rule="evenodd" clip-rule="evenodd" d="M1580.43 -107.446C1709.34 -142.699 1853.26 -255.348 1964.51 -181.289C2074.54 -108.045 1998.85 72.4853 2039.63 198.232C2080.38 323.877 2224.86 419.289 2201.45 549.289C2177.92 680.016 2046.14 765.973 1926.9 824.432C1820.21 876.731 1699.24 854.196 1580.43 853.732C1462.21 853.271 1337.92 881.513 1235.92 821.736C1129.29 759.247 1073.03 641.836 1024.71 528.067C972.047 404.1 881.237 259.144 947.019 141.617C1014.54 20.9819 1195.01 44.5503 1323.65 -6.03254C1411.44 -40.5533 1489.43 -82.5621 1580.43 -107.446Z" stroke="#8E8E8E"/>
    </g>
</svg>
